<?xml version="1.0" encoding="UTF-8"?>
<svg xmlns="http://www.w3.org/2000/svg" width="512" height="512" viewBox="0 0 512 512"><g><path d="M496,408H464V140a28.031,28.031,0,0,0-28-28H378.48l2.53-3.13a7.989,7.989,0,0,0-.56-10.69L357.82,75.55a7.989,7.989,0,0,0-10.69-.56l-34.82,28.18A110.893,110.893,0,0,0,284.64,91.7l-4.68-44.54A8.007,8.007,0,0,0,272,40H240a8.007,8.007,0,0,0-7.96,7.16L227.36,91.7a110.893,110.893,0,0,0-27.67,11.47L164.87,74.99a7.989,7.989,0,0,0-10.69.56L131.55,98.18a7.989,7.989,0,0,0-.56,10.69l2.53,3.13H76a28.031,28.031,0,0,0-28,28V408H16a8,8,0,0,0-8,8v36a28.031,28.031,0,0,0,28,28H476a28.031,28.031,0,0,0,28-28V416A8,8,0,0,0,496,408ZM160.4,91.96l33.63,27.22a7.993,7.993,0,0,0,9.42.47,95.149,95.149,0,0,1,32.9-13.63,8,8,0,0,0,6.32-7L247.2,56h17.6l4.53,43.02a8,8,0,0,0,6.32,7,95.149,95.149,0,0,1,32.9,13.63,7.993,7.993,0,0,0,9.42-.47L351.6,91.96l12.44,12.44-27.22,33.63a7.993,7.993,0,0,0-.47,9.42,95.149,95.149,0,0,1,13.63,32.9,8,8,0,0,0,7,6.32L400,191.2v17.6l-43.02,4.53a8,8,0,0,0-7,6.32,95.149,95.149,0,0,1-13.63,32.9,7.993,7.993,0,0,0,.47,9.42l27.22,33.63L351.6,308.04l-33.63-27.22a7.993,7.993,0,0,0-9.42-.47,95.149,95.149,0,0,1-32.9,13.63,8,8,0,0,0-6.32,7L264.8,344H247.2l-4.53-43.02a8,8,0,0,0-6.32-7,95.149,95.149,0,0,1-32.9-13.63,7.993,7.993,0,0,0-9.42.47L160.4,308.04,147.96,295.6l27.22-33.63a7.993,7.993,0,0,0,.47-9.42,95.149,95.149,0,0,1-13.63-32.9,8,8,0,0,0-7-6.32L112,208.8V191.2l43.02-4.53a8,8,0,0,0,7-6.32,95.149,95.149,0,0,1,13.63-32.9,7.993,7.993,0,0,0-.47-9.42L147.96,104.4Zm-57.24,132,44.54,4.68a110.893,110.893,0,0,0,11.47,27.67l-28.18,34.82a7.989,7.989,0,0,0,.56,10.69l22.63,22.63a7.989,7.989,0,0,0,10.69.56l34.82-28.18a110.893,110.893,0,0,0,27.67,11.47l4.68,44.54A8.007,8.007,0,0,0,240,360h32a8.007,8.007,0,0,0,7.96-7.16l4.68-44.54a110.893,110.893,0,0,0,27.67-11.47l34.82,28.18a7.989,7.989,0,0,0,10.69-.56l22.63-22.63a7.989,7.989,0,0,0,.56-10.69l-28.18-34.82a110.893,110.893,0,0,0,11.47-27.67l44.54-4.68A8.007,8.007,0,0,0,416,216V184a8.007,8.007,0,0,0-7.16-7.96l-44.54-4.68A110.543,110.543,0,0,0,357.2,152H424V384H88V152h66.8a110.543,110.543,0,0,0-7.1,19.36l-44.54,4.68A8.007,8.007,0,0,0,96,184v32A8.007,8.007,0,0,0,103.16,223.96ZM64,140a12.01,12.01,0,0,1,12-12h70.48l6.47,8H80a8,8,0,0,0-8,8V392a8,8,0,0,0,8,8H432a8,8,0,0,0,8-8V144a8,8,0,0,0-8-8H359.05l6.47-8H436a12.01,12.01,0,0,1,12,12V408H64ZM293.75,424l-4,16h-67.5l-4-16ZM488,452a12.01,12.01,0,0,1-12,12H36a12.01,12.01,0,0,1-12-12V424H201.75l6.49,25.94A8,8,0,0,0,216,456h80a8,8,0,0,0,7.76-6.06L310.25,424H488Z"/><path d="M256,280a80,80,0,1,0-80-80A80.091,80.091,0,0,0,256,280Zm0-144a64,64,0,1,1-64,64A64.072,64.072,0,0,1,256,136Z"/></g></svg>
