<svg id="Capa_1" enable-background="new 0 0 512 512" height="25" viewBox="0 0 512 512" width="25" xmlns="http://www.w3.org/2000/svg"><g><path d="m472.385 44.6h-354.537c-4.143 0-7.5 3.357-7.5 7.5s3.357 7.5 7.5 7.5h354.537c13.573 0 24.615 11.042 24.615 24.615v290.77c0 13.573-11.042 24.615-24.615 24.615h-162.684c-2.294 0-4.451.894-6.073 2.515l-47.628 47.627-47.627-47.628c-1.622-1.621-3.779-2.515-6.074-2.515h-162.684c-13.573.001-24.615-11.041-24.615-24.614v-290.77c0-13.573 11.042-24.615 24.615-24.615h43.231c4.143 0 7.5-3.357 7.5-7.5s-3.357-7.5-7.5-7.5h-43.231c-21.844 0-39.615 17.771-39.615 39.615v290.77c0 21.843 17.771 39.615 39.615 39.615h160.029l50.276 50.276c3.38 3.388 8.826 3.34 12.151.007l50.284-50.283h160.028c21.844 0 39.615-17.771 39.615-39.615v-290.77c.002-21.844-17.769-39.615-39.613-39.615z"/><path d="m476.889 323.795c4.143 0 7.5-3.357 7.5-7.5v-236.584c0-4.143-3.357-7.5-7.5-7.5h-441.778c-4.143 0-7.5 3.357-7.5 7.5v299.777c0 4.143 3.357 7.5 7.5 7.5h175.97l39.615 39.617c2.929 2.927 7.677 2.928 10.607 0l39.615-39.617h175.97c4.143 0 7.5-3.357 7.5-7.5v-28.192c0-4.143-3.357-7.5-7.5-7.5s-7.5 3.357-7.5 7.5v20.692h-171.576c-1.989 0-3.896.79-5.304 2.197l-36.508 36.511-36.509-36.51c-1.407-1.407-3.314-2.197-5.304-2.197h-171.576v-284.778h426.777v229.084c.001 4.143 3.358 7.5 7.501 7.5z"/><path d="m173.167 161.169c4.143 0 7.5-3.357 7.5-7.5s-3.357-7.5-7.5-7.5h-91.117c-4.143 0-7.5 3.357-7.5 7.5v151.861c0 4.143 3.357 7.5 7.5 7.5h91.117c4.143 0 7.5-3.357 7.5-7.5s-3.357-7.5-7.5-7.5h-83.617v-60.93h83.617c4.143 0 7.5-3.357 7.5-7.5s-3.357-7.5-7.5-7.5h-83.617v-60.931z"/><path d="m384.393 161.169c20.985 0 38.058 17.072 38.058 38.058 0 4.143 3.357 7.5 7.5 7.5s7.5-3.357 7.5-7.5c0-29.256-23.803-53.058-53.06-53.058-29.256 0-53.058 23.802-53.058 53.058v60.746c0 29.256 23.803 53.058 53.06 53.058 29.256 0 53.058-23.802 53.058-53.058v-15.188c0-4.143-3.357-7.5-7.5-7.5h-45.559c-4.143 0-7.5 3.357-7.5 7.5s3.357 7.5 7.5 7.5h38.059v7.688c0 20.985-17.073 38.058-38.06 38.058-20.985 0-38.058-17.072-38.058-38.058v-60.746c0-20.985 17.073-38.058 38.06-38.058z"/><path d="m294.059 153.669v124.784l-77.186-128.643c-1.734-2.891-5.185-4.272-8.434-3.369-3.249.899-5.498 3.856-5.498 7.228v151.861c0 4.143 3.357 7.5 7.5 7.5s7.5-3.357 7.5-7.5v-124.784l77.186 128.643c1.738 2.897 5.195 4.269 8.434 3.369 3.249-.899 5.498-3.856 5.498-7.228v-151.861c0-4.143-3.357-7.5-7.5-7.5s-7.5 3.358-7.5 7.5z"/></g></svg>