<svg height="30" viewBox="0 0 128 128" width="30" xmlns="http://www.w3.org/2000/svg"><g><path d="m119.155 65.307a6.738 6.738 0 0 0 -9.1 2.816l-10.979 20.829-27.6-9.533v-4.554a24.251 24.251 0 0 0 7.554-18.1v-2.127a15.031 15.031 0 1 0 -30.062 0v2.126a24.254 24.254 0 0 0 7.553 18.1v4.554l-27.6 9.533-10.979-20.828a6.734 6.734 0 0 0 -11.914 6.282l12.55 23.8a9.5 9.5 0 0 0 11.566 4.572l13.912-4.8v23.023a1.75 1.75 0 0 0 3.5 0v-25.482a1.751 1.751 0 0 0 -2.322-1.654l-16.234 5.607a6.016 6.016 0 0 1 -7.327-2.9l-9.79-18.568 5.642-3.168 9 17.074a1.75 1.75 0 0 0 2.119.838l22.344-7.717 11.262 21.27v14.7a1.75 1.75 0 0 0 3.5 0v-14.7l11.258-21.267 22.344 7.717a1.752 1.752 0 0 0 2.12-.838l9-17.074 5.642 3.168-9.79 18.568a6.015 6.015 0 0 1 -7.324 2.897l-16.234-5.607a1.751 1.751 0 0 0 -2.322 1.654v25.482a1.75 1.75 0 0 0 3.5 0v-23.026l13.912 4.8a9.5 9.5 0 0 0 11.566-4.572l12.55-23.8a6.743 6.743 0 0 0 -2.817-9.095zm-108.9 9.6-1.131-2.134a3.235 3.235 0 1 1 5.723-3.018l1.047 1.986zm49.771 2.329a10.211 10.211 0 0 0 7.955 0v2.978a4.407 4.407 0 0 1 -3.981 1.82 4.412 4.412 0 0 1 -3.978-1.819zm-7.557-20.472v-2.126a11.531 11.531 0 1 1 23.062 0v2.126a20.846 20.846 0 0 1 -6.971 16.036 6.834 6.834 0 0 1 -9.121 0 20.849 20.849 0 0 1 -6.97-16.036zm11.531 45.361-9.66-18.249 3.231-1.116a8.019 8.019 0 0 0 6.429 2.774 8.019 8.019 0 0 0 6.429-2.774l3.231 1.116zm48.106-30.384 1.047-1.986a3.235 3.235 0 0 1 5.723 3.017l-1.127 2.137z"/><path d="m64 21.219a7.985 7.985 0 1 0 -7.984-7.985 7.994 7.994 0 0 0 7.984 7.985zm0-12.469a4.485 4.485 0 1 1 -4.484 4.484 4.489 4.489 0 0 1 4.484-4.484z"/><path d="m35.76 32.682a7.985 7.985 0 1 0 -7.986-7.982 7.994 7.994 0 0 0 7.986 7.982zm0-12.47a4.485 4.485 0 1 1 -4.486 4.488 4.49 4.49 0 0 1 4.486-4.488z"/><path d="m20.123 56.923a7.985 7.985 0 1 0 -7.984-7.984 7.994 7.994 0 0 0 7.984 7.984zm0-12.469a4.485 4.485 0 1 1 -4.484 4.485 4.489 4.489 0 0 1 4.484-4.485z"/><path d="m92.24 32.682a7.985 7.985 0 1 0 -7.984-7.982 7.994 7.994 0 0 0 7.984 7.982zm0-12.47a4.485 4.485 0 1 1 -4.484 4.488 4.49 4.49 0 0 1 4.484-4.488z"/><path d="m107.877 56.923a7.985 7.985 0 1 0 -7.984-7.984 7.994 7.994 0 0 0 7.984 7.984zm0-12.469a4.485 4.485 0 1 1 -4.484 4.485 4.489 4.489 0 0 1 4.484-4.485z"/></g></svg>